<svg width="72" height="72" viewBox="0 0 72 72" fill="none" xmlns="http://www.w3.org/2000/svg">
<rect x="72" width="72" height="72" rx="6" transform="rotate(90 72 0)" fill="#0A5670"/>
<path d="M66 0C69.3137 0 72 2.68629 72 6V8H0V6C0 2.68629 2.68629 0 6 0H66Z" fill="#51AFBC"/>
<rect width="72" height="40" transform="translate(0 8)" fill="white"/>
<path d="M14.7842 37.5674V27.2324C14.7842 26.4408 14.6234 25.7542 14.3018 25.1729C13.9925 24.5791 13.5225 24.1214 12.8916 23.7998C12.2607 23.4782 11.4814 23.3174 10.5537 23.3174C9.68783 23.3174 8.92708 23.4658 8.27148 23.7627C7.62826 24.0596 7.12109 24.4492 6.75 24.9316C6.39128 25.4141 6.21191 25.9336 6.21191 26.4902H2.7793C2.7793 25.7728 2.96484 25.0615 3.33594 24.3564C3.70703 23.6514 4.23893 23.0143 4.93164 22.4453C5.63672 21.8639 6.47786 21.4062 7.45508 21.0723C8.44466 20.7259 9.54557 20.5527 10.7578 20.5527C12.2174 20.5527 13.5039 20.8001 14.6172 21.2949C15.7428 21.7897 16.6211 22.5381 17.252 23.54C17.8952 24.5296 18.2168 25.7728 18.2168 27.2695V36.6211C18.2168 37.2891 18.2725 38.0003 18.3838 38.7549C18.5075 39.5094 18.6868 40.1589 18.9219 40.7031V41H15.3408C15.1676 40.6042 15.0316 40.0785 14.9326 39.4229C14.8337 38.7549 14.7842 38.1364 14.7842 37.5674ZM15.3779 28.8281L15.415 31.2402H11.9453C10.9681 31.2402 10.096 31.3206 9.3291 31.4814C8.56217 31.6299 7.91895 31.8587 7.39941 32.168C6.87988 32.4772 6.48405 32.8669 6.21191 33.3369C5.93978 33.7946 5.80371 34.3327 5.80371 34.9512C5.80371 35.582 5.94596 36.1572 6.23047 36.6768C6.51497 37.1963 6.94173 37.6107 7.51074 37.9199C8.09212 38.2168 8.80339 38.3652 9.64453 38.3652C10.696 38.3652 11.6237 38.1426 12.4277 37.6973C13.2318 37.252 13.8688 36.7077 14.3389 36.0645C14.8213 35.4212 15.0811 34.7965 15.1182 34.1904L16.584 35.8418C16.4974 36.3613 16.2624 36.9365 15.8789 37.5674C15.4954 38.1982 14.9821 38.8044 14.3389 39.3857C13.708 39.9548 12.9535 40.431 12.0752 40.8145C11.2093 41.1855 10.2321 41.3711 9.14355 41.3711C7.78288 41.3711 6.58919 41.1051 5.5625 40.5732C4.54818 40.0413 3.75651 39.3301 3.1875 38.4395C2.63086 37.5365 2.35254 36.5283 2.35254 35.415C2.35254 34.3389 2.56283 33.3926 2.9834 32.5762C3.40397 31.7474 4.01009 31.0609 4.80176 30.5166C5.59342 29.96 6.5459 29.5394 7.65918 29.2549C8.77246 28.9704 10.0156 28.8281 11.3887 28.8281H15.3779ZM26.7373 41H23.3047V18.8086C23.3047 17.3613 23.5645 16.1429 24.084 15.1533C24.6159 14.1514 25.3766 13.3968 26.3662 12.8896C27.3558 12.3701 28.5309 12.1104 29.8916 12.1104C30.2874 12.1104 30.6833 12.1351 31.0791 12.1846C31.4873 12.234 31.8831 12.3083 32.2666 12.4072L32.0811 15.209C31.8213 15.1471 31.5244 15.1038 31.1904 15.0791C30.8688 15.0544 30.5472 15.042 30.2256 15.042C29.4958 15.042 28.8649 15.1904 28.333 15.4873C27.8135 15.7718 27.4176 16.1924 27.1455 16.749C26.8734 17.3057 26.7373 17.9922 26.7373 18.8086V41ZM31.0049 20.9238V23.5586H20.1318V20.9238H31.0049ZM41.2324 20.9238V23.5586H30.3779V20.9238H41.2324ZM34.0518 16.0439H37.4844V36.0273C37.4844 36.7077 37.5895 37.221 37.7998 37.5674C38.0101 37.9137 38.2822 38.1426 38.6162 38.2539C38.9502 38.3652 39.3089 38.4209 39.6924 38.4209C39.9769 38.4209 40.2738 38.3962 40.583 38.3467C40.9046 38.2848 41.1458 38.2354 41.3066 38.1982L41.3252 41C41.0531 41.0866 40.6943 41.167 40.249 41.2412C39.8161 41.3278 39.2904 41.3711 38.6719 41.3711C37.8307 41.3711 37.0576 41.2041 36.3525 40.8701C35.6475 40.5361 35.0846 39.9795 34.6641 39.2002C34.2559 38.4085 34.0518 37.3447 34.0518 36.0088V16.0439ZM51.5898 41.3711C50.1921 41.3711 48.9242 41.1361 47.7861 40.666C46.6605 40.1836 45.6895 39.5094 44.873 38.6436C44.069 37.7777 43.4505 36.751 43.0176 35.5635C42.5846 34.376 42.3682 33.0771 42.3682 31.667V30.8877C42.3682 29.2549 42.6094 27.8014 43.0918 26.5273C43.5742 25.2409 44.2298 24.1523 45.0586 23.2617C45.8874 22.3711 46.8275 21.6969 47.8789 21.2393C48.9303 20.7816 50.0189 20.5527 51.1445 20.5527C52.5794 20.5527 53.8164 20.8001 54.8555 21.2949C55.9069 21.7897 56.7666 22.4824 57.4346 23.373C58.1025 24.2513 58.5973 25.2904 58.9189 26.4902C59.2406 27.6777 59.4014 28.9766 59.4014 30.3867V31.9268H44.4092V29.125H55.9688V28.8652C55.9193 27.9746 55.7337 27.1087 55.4121 26.2676C55.1029 25.4264 54.6081 24.7337 53.9277 24.1895C53.2474 23.6452 52.3197 23.373 51.1445 23.373C50.3652 23.373 49.6478 23.54 48.9922 23.874C48.3366 24.1956 47.7738 24.6781 47.3037 25.3213C46.8337 25.9645 46.4688 26.75 46.209 27.6777C45.9492 28.6055 45.8193 29.6755 45.8193 30.8877V31.667C45.8193 32.6195 45.9492 33.5163 46.209 34.3574C46.4811 35.1862 46.8708 35.916 47.3779 36.5469C47.8975 37.1777 48.5221 37.6725 49.252 38.0312C49.9941 38.39 50.8353 38.5693 51.7754 38.5693C52.9876 38.5693 54.0143 38.3219 54.8555 37.8271C55.6966 37.3324 56.4326 36.6706 57.0635 35.8418L59.1416 37.4932C58.7087 38.1488 58.1582 38.7734 57.4902 39.3672C56.8223 39.9609 55.9997 40.4434 55.0225 40.8145C54.0576 41.1855 52.9134 41.3711 51.5898 41.3711ZM64.8418 24.0781V41H61.4092V20.9238H64.749L64.8418 24.0781ZM71.1133 20.8125L71.0947 24.0039C70.8102 23.9421 70.5381 23.9049 70.2783 23.8926C70.0309 23.8678 69.7464 23.8555 69.4248 23.8555C68.6331 23.8555 67.9342 23.9792 67.3281 24.2266C66.722 24.474 66.2087 24.8203 65.7881 25.2656C65.3675 25.7109 65.0335 26.2428 64.7861 26.8613C64.5511 27.4674 64.3965 28.1354 64.3223 28.8652L63.3574 29.4219C63.3574 28.2096 63.4749 27.0716 63.71 26.0078C63.9574 24.944 64.3346 24.0039 64.8418 23.1875C65.349 22.3587 65.9922 21.7155 66.7715 21.2578C67.5632 20.7878 68.5033 20.5527 69.5918 20.5527C69.8392 20.5527 70.1237 20.5837 70.4453 20.6455C70.7669 20.695 70.9896 20.7507 71.1133 20.8125Z" fill="black"/>
</svg>
